{
  "accessors": [
    {
      "bufferView": 2,
      "componentType": 5126,
      "count": 289,
      "max": [
        0.7185369729995728,
        -1.6496930122375488,
        2.7019190788269043
      ],
      "min": [
        0.5743730068206787,
        -4.668423175811768,
        0.9621490240097046
      ],
      "type": "VEC3"
    },
    {
      "bufferView": 2,
      "byteOffset": 3468,
      "componentType": 5126,
      "count": 289,
      "max": [
        0.9999804496765137,
        0.3154042959213257,
        0.9934282898902893
      ],
      "min": [
        0.08590295165777206,
        -0.43260452151298523,
        -0.35351133346557617
      ],
      "type": "VEC3"
    },
    {
      "bufferView": 3,
      "componentType": 5126,
      "count": 289,
      "max": [
        0.4262259006500244,
        0.9999995827674866,
        0.5743924379348755,
        1.0
      ],
      "min": [
        -0.3146984875202179,
        0.8181994557380676,
        -0.5747534036636353,
        1.0
      ],
      "type": "VEC4"
    },
    {
      "bufferView": 1,
      "componentType": 5126,
      "count": 289,
      "max": [
        0.9884690046310425,
        0.691224992275238
      ],
      "min": [
        0.025349000468850136,
        0.2582390010356903
      ],
      "type": "VEC2"
    },
    {
      "bufferView": 0,
      "componentType": 5125,
      "count": 1536,
      "type": "SCALAR"
    },
    {
      "bufferView": 2,
      "byteOffset": 6936,
      "componentType": 5126,
      "count": 4,
      "max": [
        3.181183099746704,
        -7.836692810058594,
        2.7673799991607666
      ],
      "min": [
        3.1811819076538086,
        -10.285076141357422,
        2.5765271186828613
      ],
      "type": "VEC3"
    },
    {
      "bufferView": 1,
      "byteOffset": 2312,
      "componentType": 5126,
      "count": 4,
      "max": [
        0.0,
        0.0
      ],
      "min": [
        0.0,
        0.0
      ],
      "type": "VEC2"
    },
    {
      "bufferView": 0,
      "byteOffset": 6144,
      "componentType": 5125,
      "count": 6,
      "type": "SCALAR"
    },
    {
      "bufferView": 2,
      "byteOffset": 6984,
      "componentType": 5126,
      "count": 4965,
      "max": [
        3.273587942123413,
        1.4532350301742554,
        5.616998195648193
      ],
      "min": [
        -5.753477096557617,
        -12.807071685791016,
        -1.232274055480957
      ],
      "type": "VEC3"
    },
    {
      "bufferView": 2,
      "byteOffset": 66564,
      "componentType": 5126,
      "count": 4965,
      "max": [
        1.0,
        1.0,
        1.0
      ],
      "min": [
        -1.0,
        -1.0,
        -1.0
      ],
      "type": "VEC3"
    },
    {
      "bufferView": 3,
      "byteOffset": 4624,
      "componentType": 5126,
      "count": 4965,
      "max": [
        1.0,
        1.0,
        1.0,
        1.0
      ],
      "min": [
        -1.0,
        -1.0,
        -1.0,
        -1.0
      ],
      "type": "VEC4"
    },
    {
      "bufferView": 1,
      "byteOffset": 2344,
      "componentType": 5126,
      "count": 4965,
      "max": [
        1.4850660562515259,
        0.9936779737472534
      ],
      "min": [
        -0.5546560287475586,
        0.0
      ],
      "type": "VEC2"
    },
    {
      "bufferView": 0,
      "byteOffset": 6168,
      "componentType": 5125,
      "count": 8580,
      "type": "SCALAR"
    },
    {
      "bufferView": 2,
      "byteOffset": 126144,
      "componentType": 5126,
      "count": 9191,
      "max": [
        4.0255022048950195,
        2.0603671073913574,
        6.629284858703613
      ],
      "min": [
        -6.589134216308594,
        -13.775235176086426,
        -1.0729039907455444
      ],
      "type": "VEC3"
    },
    {
      "bufferView": 2,
      "byteOffset": 236436,
      "componentType": 5126,
      "count": 9191,
      "max": [
        1.0,
        1.0,
        0.9881942272186279
      ],
      "min": [
        -1.0,
        -1.0,
        -1.0
      ],
      "type": "VEC3"
    },
    {
      "bufferView": 3,
      "byteOffset": 84064,
      "componentType": 5126,
      "count": 9191,
      "max": [
        1.0,
        1.0,
        1.0,
        1.0
      ],
      "min": [
        -1.0,
        -1.0,
        -1.0,
        -1.0
      ],
      "type": "VEC4"
    },
    {
      "bufferView": 1,
      "byteOffset": 42064,
      "componentType": 5126,
      "count": 9191,
      "max": [
        2.0409979820251465,
        0.9929159879684448
      ],
      "min": [
        -1.0293550491333008,
        0.2622770071029663
      ],
      "type": "VEC2"
    },
    {
      "bufferView": 0,
      "byteOffset": 40488,
      "componentType": 5125,
      "count": 21978,
      "type": "SCALAR"
    },
    {
      "bufferView": 2,
      "byteOffset": 346728,
      "componentType": 5126,
      "count": 9972,
      "max": [
        4.123932838439941,
        2.225893974304199,
        6.654994964599609
      ],
      "min": [
        -6.624547004699707,
        -13.807413101196289,
        -0.5078319907188416
      ],
      "type": "VEC3"
    },
    {
      "bufferView": 2,
      "byteOffset": 466392,
      "componentType": 5126,
      "count": 9972,
      "max": [
        1.0,
        1.0,
        1.0
      ],
      "min": [
        -1.0,
        -1.0,
        -1.0
      ],
      "type": "VEC3"
    },
    {
      "bufferView": 3,
      "byteOffset": 231120,
      "componentType": 5126,
      "count": 9972,
      "max": [
        1.0,
        1.0,
        1.0,
        1.0
      ],
      "min": [
        -1.0,
        -1.0,
        -1.0,
        -1.0
      ],
      "type": "VEC4"
    },
    {
      "bufferView": 1,
      "byteOffset": 115592,
      "componentType": 5126,
      "count": 9972,
      "max": [
        1.3284339904785156,
        1.0
      ],
      "min": [
        -0.5116509795188904,
        0.0
      ],
      "type": "VEC2"
    },
    {
      "bufferView": 0,
      "byteOffset": 128400,
      "componentType": 5125,
      "count": 19236,
      "type": "SCALAR"
    },
    {
      "bufferView": 2,
      "byteOffset": 586056,
      "componentType": 5126,
      "count": 9209,
      "max": [
        4.021076202392578,
        2.046761989593506,
        6.657939910888672
      ],
      "min": [
        -3.7003979682922363,
        -10.347455978393555,
        0.035027001053094864
      ],
      "type": "VEC3"
    },
    {
      "bufferView": 2,
      "byteOffset": 696564,
      "componentType": 5126,
      "count": 9209,
      "max": [
        0.9996948838233948,
        0.9997795224189758,
        0.999137282371521
      ],
      "min": [
        -0.9998874664306641,
        -0.9997795224189758,
        -0.999137282371521
      ],
      "type": "VEC3"
    },
    {
      "bufferView": 3,
      "byteOffset": 390672,
      "componentType": 5126,
      "count": 9209,
      "max": [
        0.9999075531959534,
        1.0,
        1.0,
        1.0
      ],
      "min": [
        -1.0,
        -1.0,
        -1.0,
        -1.0
      ],
      "type": "VEC4"
    },
    {
      "bufferView": 1,
      "byteOffset": 195368,
      "componentType": 5126,
      "count": 9209,
      "max": [
        1.57853102684021,
        0.8192189931869507
      ],
      "min": [
        -0.2734610140323639,
        0.0
      ],
      "type": "VEC2"
    },
    {
      "bufferView": 0,
      "byteOffset": 205344,
      "componentType": 5125,
      "count": 25056,
      "type": "SCALAR"
    },
    {
      "bufferView": 2,
      "byteOffset": 807072,
      "componentType": 5126,
      "count": 1272,
      "max": [
        -1.558156967163086,
        -6.5862932205200195,
        1.0475529432296753
      ],
      "min": [
        -1.6301900148391724,
        -6.773171901702881,
        1.005431056022644
      ],
      "type": "VEC3"
    },
    {
      "bufferView": 2,
      "byteOffset": 822336,
      "componentType": 5126,
      "count": 1272,
      "max": [
        0.9999697208404541,
        0.997418999671936,
        0.9999864101409912
      ],
      "min": [
        -0.9990854859352112,
        -0.9929988980293274,
        -0.9999864101409912
      ],
      "type": "VEC3"
    },
    {
      "bufferView": 3,
      "byteOffset": 538016,
      "componentType": 5126,
      "count": 1272,
      "max": [
        0.9957951307296753,
        0.9999962449073792,
        1.0,
        1.0
      ],
      "min": [
        -0.9946752190589905,
        -0.9999930262565613,
        -0.9953393936157227,
        -1.0
      ],
      "type": "VEC4"
    },
    {
      "bufferView": 1,
      "byteOffset": 269040,
      "componentType": 5126,
      "count": 1272,
      "max": [
        0.9708939790725708,
        0.8221369981765747
      ],
      "min": [
        0.275067001581192,
        0.7040190100669861
      ],
      "type": "VEC2"
    },
    {
      "bufferView": 0,
      "byteOffset": 305568,
      "componentType": 5125,
      "count": 6516,
      "type": "SCALAR"
    }
  ],
  "asset": {
    "extras": {
      "author": "aj1stly (https://sketchfab.com/aj1stly)",
      "license": "CC-BY-4.0 (http://creativecommons.org/licenses/by/4.0/)",
      "source": "https://sketchfab.com/3d-models/abandoned-house-76ccbc5f882744c29b3ffee31c4bc697",
      "title": "Abandoned house"
    },
    "generator": "Sketchfab-16.12.0",
    "version": "2.0"
  },
  "bufferViews": [
    {
      "buffer": 0,
      "byteLength": 331632,
      "name": "floatBufferViews",
      "target": 34963
    },
    {
      "buffer": 0,
      "byteLength": 279216,
      "byteOffset": 331632,
      "byteStride": 8,
      "name": "floatBufferViews",
      "target": 34962
    },
    {
      "buffer": 0,
      "byteLength": 837600,
      "byteOffset": 610848,
      "byteStride": 12,
      "name": "floatBufferViews",
      "target": 34962
    },
    {
      "buffer": 0,
      "byteLength": 558368,
      "byteOffset": 1448448,
      "byteStride": 16,
      "name": "floatBufferViews",
      "target": 34962
    }
  ],
  "buffers": [
    {
      "byteLength": 2006816,
      "uri": "scene.bin"
    }
  ],
  "images": [
    {
      "uri": "textures/Sign_baseColor.png"
    },
    {
      "uri": "textures/Sign_metallicRoughness.png"
    },
    {
      "uri": "textures/Sign_normal.png"
    },
    {
      "uri": "textures/trim_sheet_baseColor.png"
    },
    {
      "uri": "textures/trim_sheet_metallicRoughness.png"
    },
    {
      "uri": "textures/trim_sheet_normal.jpeg"
    }
  ],
  "materials": [
    {
      "doubleSided": true,
      "name": "Sign",
      "normalTexture": {
        "index": 2
      },
      "pbrMetallicRoughness": {
        "baseColorTexture": {
          "index": 0
        },
        "metallicRoughnessTexture": {
          "index": 1
        }
      }
    },
    {
      "alphaMode": "BLEND",
      "doubleSided": true,
      "name": "trim_sheet",
      "normalTexture": {
        "index": 5
      },
      "pbrMetallicRoughness": {
        "baseColorTexture": {
          "index": 3
        },
        "metallicRoughnessTexture": {
          "index": 4
        }
      }
    }
  ],
  "meshes": [
    {
      "name": "Object_0",
      "primitives": [
        {
          "attributes": {
            "NORMAL": 1,
            "POSITION": 0,
            "TANGENT": 2,
            "TEXCOORD_0": 3
          },
          "indices": 4,
          "material": 0,
          "mode": 4
        }
      ]
    },
    {
      "name": "Object_1",
      "primitives": [
        {
          "attributes": {
            "POSITION": 5,
            "TEXCOORD_0": 6
          },
          "indices": 7,
          "material": 1,
          "mode": 1
        }
      ]
    },
    {
      "name": "Object_2",
      "primitives": [
        {
          "attributes": {
            "NORMAL": 9,
            "POSITION": 8,
            "TANGENT": 10,
            "TEXCOORD_0": 11
          },
          "indices": 12,
          "material": 1,
          "mode": 4
        }
      ]
    },
    {
      "name": "Object_3",
      "primitives": [
        {
          "attributes": {
            "NORMAL": 14,
            "POSITION": 13,
            "TANGENT": 15,
            "TEXCOORD_0": 16
          },
          "indices": 17,
          "material": 1,
          "mode": 4
        }
      ]
    },
    {
      "name": "Object_4",
      "primitives": [
        {
          "attributes": {
            "NORMAL": 19,
            "POSITION": 18,
            "TANGENT": 20,
            "TEXCOORD_0": 21
          },
          "indices": 22,
          "material": 1,
          "mode": 4
        }
      ]
    },
    {
      "name": "Object_5",
      "primitives": [
        {
          "attributes": {
            "NORMAL": 24,
            "POSITION": 23,
            "TANGENT": 25,
            "TEXCOORD_0": 26
          },
          "indices": 27,
          "material": 1,
          "mode": 4
        }
      ]
    },
    {
      "name": "Object_6",
      "primitives": [
        {
          "attributes": {
            "NORMAL": 29,
            "POSITION": 28,
            "TANGENT": 30,
            "TEXCOORD_0": 31
          },
          "indices": 32,
          "material": 1,
          "mode": 4
        }
      ]
    }
  ],
  "nodes": [
    {
      "children": [
        1
      ],
      "matrix": [
        1.0,
        0.0,
        0.0,
        0.0,
        0.0,
        2.220446049250313e-16,
        -1.0,
        0.0,
        0.0,
        1.0,
        2.220446049250313e-16,
        0.0,
        0.0,
        0.0,
        0.0,
        1.0
      ],
      "name": "Sketchfab_model"
    },
    {
      "children": [
        2,
        3,
        4,
        5,
        6,
        7,
        8
      ],
      "name": "Abandoned house.obj.cleaner.materialmerger.gles"
    },
    {
      "mesh": 0,
      "name": "Object_2"
    },
    {
      "mesh": 1,
      "name": "Object_3"
    },
    {
      "mesh": 2,
      "name": "Object_4"
    },
    {
      "mesh": 3,
      "name": "Object_5"
    },
    {
      "mesh": 4,
      "name": "Object_6"
    },
    {
      "mesh": 5,
      "name": "Object_7"
    },
    {
      "mesh": 6,
      "name": "Object_8"
    }
  ],
  "samplers": [
    {
      "magFilter": 9729,
      "minFilter": 9987,
      "wrapS": 10497,
      "wrapT": 10497
    }
  ],
  "scene": 0,
  "scenes": [
    {
      "name": "Sketchfab_Scene",
      "nodes": [
        0
      ]
    }
  ],
  "textures": [
    {
      "sampler": 0,
      "source": 0
    },
    {
      "sampler": 0,
      "source": 1
    },
    {
      "sampler": 0,
      "source": 2
    },
    {
      "sampler": 0,
      "source": 3
    },
    {
      "sampler": 0,
      "source": 4
    },
    {
      "sampler": 0,
      "source": 5
    }
  ]
}
